<svg xmlns="http://www.w3.org/2000/svg" width="918.379" height="708.929" viewBox="0 0 918.379 708.929">
  <g id="Сгруппировать_5" data-name="Сгруппировать 5" opacity="0.136">
    <path id="Контур_1" data-name="Контур 1" d="M644.566,764.156H616.679c-57.408-.008-114.808-.158-172.215.158-8.575.047-12.962-1.917-15.336-11.045-35.122-134.98-70.945-269.778-105.814-404.829-7.321-28.345-11.463-57.518-17.348-87.709-18.933,131.587-61.368,256-94,382.818-9.514,36.968-19.793,73.746-30.451,110.4-1.2,4.11-7.187,9.727-10.989,9.759-65.738.544-131.485.331-197.223.221-1.317,0-2.627-.844-5.222-1.728,10.311-31.792,20.472-63.372,30.791-94.9Q94.368,375.65,189.627,83.949c4.2-12.93,9.893-17.19,23.651-17,63.277.844,126.578.647,189.863.1,11.187-.095,16.18,3.3,19.675,14.058Q530.95,414.207,639.77,747.085C641.395,752.086,642.626,757.214,644.566,764.156Z" transform="translate(273.813 -66.942)" fill="#043376"/>
    <path id="Контур_2" data-name="Контур 2" d="M40.122,133.749c38.545-.1,73.43,9.451,89.413,48.383,24.566,59.845.458,132.179-83.891,134.609-31.146.891-61.194-3.227-83.67-27.706-27.951-30.443-29.907-66.52-16.535-103.124,12.962-35.477,43.129-48.651,78.511-52.083C29.3,133.307,34.734,133.749,40.122,133.749Z" transform="translate(62.581 392.078)" fill="#043376"/>
  </g>
</svg>
